<svg width="24" height="24" viewBox="0 0 30 30" fill="none" xmlns="http://www.w3.org/2000/svg">
    <path d="M4.688 4.688v20.625h20.625V4.688H4.688zm1.875 1.875h16.875v16.875H6.563V6.563zm1.875 4.096v8.072h3.918c1.463-.01 2.84-.712 2.84-2.353 0-1.022-.487-1.884-1.471-2.165.722-.357 1.097-.75 1.097-1.557 0-1.612-1.19-1.997-2.578-1.997H8.438zm8.568.591v.797h3.263v-.797h-3.263zm-6.787.647h1.668c.629 0 1.21.178 1.21.919 0 .684-.45.965-1.088.965h-1.79v-1.884zm8.493.694c-1.771 0-2.98 1.322-2.98 3.084 0 1.819 1.134 3.075 2.98 3.075 1.397 0 2.307-.628 2.738-1.969h-1.416c-.159.497-.778.76-1.265.76-.947 0-1.435-.553-1.435-1.482h4.21a3.22 3.22 0 0 0 .018-.309c0-1.725-1.021-3.16-2.85-3.16zm-.056 1.2c.816 0 1.219.478 1.285 1.256h-2.607c.047-.769.553-1.256 1.322-1.256zm-8.447 1.33h1.941c.778 0 1.275.329 1.275 1.163 0 .807-.59 1.06-1.313 1.06H10.21v-2.222z" fill="#222"/>
</svg>
