<svg width="21" height="20" viewBox="0 0 21 20" fill="none" xmlns="http://www.w3.org/2000/svg">
    <path d="M17.074 10.833c-.184 0-.375-.059-.559-.1a7.86 7.86 0 0 1-1.091-.325 1.667 1.667 0 0 0-2.067.833l-.183.375a10.152 10.152 0 0 1-2.217-1.667 10.149 10.149 0 0 1-1.666-2.216l.35-.234a1.667 1.667 0 0 0 .833-2.066 8.593 8.593 0 0 1-.325-1.092 6.17 6.17 0 0 1-.1-.567 2.5 2.5 0 0 0-2.5-2.075h-2.5a2.5 2.5 0 0 0-2.5 2.842 15.833 15.833 0 0 0 13.767 13.717h.316a2.5 2.5 0 0 0 2.285-1.482c.143-.323.217-.673.215-1.027v-2.5a2.5 2.5 0 0 0-2.058-2.416zm.416 5a.833.833 0 0 1-.602.802.877.877 0 0 1-.364.031A14.167 14.167 0 0 1 4.266 4.35a.908.908 0 0 1 .208-.683.833.833 0 0 1 .625-.283h2.5a.833.833 0 0 1 .833.658c.034.228.075.453.125.675.096.44.225.871.384 1.292l-1.167.541a.833.833 0 0 0-.408 1.109 12.075 12.075 0 0 0 5.833 5.833c.203.084.43.084.633 0a.835.835 0 0 0 .475-.433l.517-1.167c.43.154.87.282 1.316.383.223.05.448.092.675.126a.833.833 0 0 1 .659.833l.017 2.6z" fill="#222"/>
</svg>
