<svg width="22" height="22" viewBox="0 0 26 26" fill="none" xmlns="http://www.w3.org/2000/svg">
    <path d="M13 8.125a4.875 4.875 0 1 0 0 9.75 4.875 4.875 0 0 0 0-9.75zm0 7.313a2.438 2.438 0 1 1 0-4.876 2.438 2.438 0 0 1 0 4.876zM17.875 2.03h-9.75a6.1 6.1 0 0 0-6.094 6.094v9.75a6.1 6.1 0 0 0 6.094 6.094h9.75a6.101 6.101 0 0 0 6.094-6.094v-9.75a6.101 6.101 0 0 0-6.094-6.094zm3.656 15.844a3.657 3.657 0 0 1-3.656 3.656h-9.75a3.656 3.656 0 0 1-3.656-3.656v-9.75a3.656 3.656 0 0 1 3.656-3.656h9.75a3.656 3.656 0 0 1 3.656 3.656v9.75zM19.906 7.719a1.625 1.625 0 1 1-3.25 0 1.625 1.625 0 0 1 3.25 0z" fill="#C78437"/>
</svg>
