<svg width="23" height="23" viewBox="0 0 26 26" fill="none" xmlns="http://www.w3.org/2000/svg">
    <path d="M21.524 2.844H4.476c-.901 0-1.632.731-1.632 1.632v17.048c0 .901.731 1.632 1.632 1.632h17.048c.901 0 1.632-.731 1.632-1.632V4.476c0-.901-.731-1.632-1.632-1.632zm0 18.687c-11.37-.002-17.055-.005-17.055-.007.002-11.37.005-17.055.007-17.055 11.37.002 17.055.005 17.055.007-.002 11.37-.005 17.055-.007 17.055zM5.855 10.458H8.87v9.694H5.855v-9.694zm1.508-1.325a1.748 1.748 0 0 0 .669-3.36 1.747 1.747 0 1 0-.669 3.36zm6.406 6.223c0-1.264.242-2.488 1.808-2.488 1.544 0 1.567 1.445 1.567 2.57v4.714h3.011v-5.316c0-2.61-.564-4.619-3.613-4.619-1.465 0-2.448.805-2.851 1.567h-.041v-1.326h-2.892v9.694h3.011v-4.796z" fill="#222"/>
</svg>
